<?xml version="1.0" encoding="UTF-8" standalone="no"?>
<!-- Uploaded to: SVG Repo, www.svgrepo.com, Generator: SVG Repo Mixer Tools -->

<svg
   height="799.99994"
   width="799.99994"
   version="1.1"
   id="Layer_1"
   viewBox="0 0 512.00096 512.00096"
   xml:space="preserve"
   sodipodi:docname="surprised-emoji-svgrepo-com.svg"
   xmlns:inkscape="http://www.inkscape.org/namespaces/inkscape"
   xmlns:sodipodi="http://sodipodi.sourceforge.net/DTD/sodipodi-0.dtd"
   xmlns="http://www.w3.org/2000/svg"
   xmlns:svg="http://www.w3.org/2000/svg"><defs
   id="defs10" /><sodipodi:namedview
   id="namedview10"
   pagecolor="#ffffff"
   bordercolor="#666666"
   borderopacity="1.0"
   inkscape:showpageshadow="2"
   inkscape:pageopacity="0.0"
   inkscape:pagecheckerboard="0"
   inkscape:deskcolor="#d1d1d1" />
<circle
   style="fill:#f7b239"
   cx="256.004"
   cy="256.004"
   r="246.855"
   id="circle1" />
<path
   style="fill:#e09b2d"
   d="M 126.306,385.694 C 37.505,296.892 30.508,157.268 105.308,60.453 97.022,66.854 89.05,73.852 81.45,81.452 c -96.401,96.401 -96.401,252.698 0,349.099 96.401,96.401 252.698,96.401 349.099,0 7.599,-7.599 14.597,-15.573 20.999,-23.858 -96.815,74.799 -236.44,67.802 -325.242,-20.999 z"
   id="path1" />
<path
   style="fill:#a81004"
   d="m 303.045,359.121 c 0,12.468 -2.623,24.106 -7.149,33.951 -8.308,18.079 -23.069,30.096 -39.892,30.096 -16.823,0 -31.584,-12.016 -39.892,-30.096 -4.538,-9.845 -7.161,-21.483 -7.161,-33.951 0,-35.366 21.068,-64.047 47.053,-64.047 25.985,0 47.041,28.681 47.041,64.047 z"
   id="path2" />
<path
   style="fill:#f95428"
   d="m 295.896,393.072 c -8.308,18.079 -23.069,30.096 -39.892,30.096 -16.823,0 -31.584,-12.016 -39.892,-30.096 3.245,-0.659 6.6,-1.013 10.04,-1.013 4.143,0 8.169,0.504 12.02,1.453 11.689,2.883 23.974,2.88 35.664,-0.002 3.846,-0.948 7.867,-1.452 12.008,-1.452 3.44,0.001 6.807,0.355 10.052,1.014 z"
   id="path3" />
<path
   d="M 256.001,0 C 114.841,0 0,114.841 0,256.001 c 0,141.16 114.841,256.001 256.001,256.001 141.16,0 256,-114.842 256,-256.001 C 512.001,114.842 397.16,0 256.001,0 Z m 0,493.701 c -131.069,0 -237.702,-106.631 -237.702,-237.7 0,-131.069 106.633,-237.702 237.702,-237.702 131.069,0 237.702,106.632 237.702,237.702 0,131.07 -106.635,237.7 -237.702,237.7 z"
   id="path4" />
<path
   d="m 146.723,192.982 c -18.666,0 -33.852,15.186 -33.852,33.852 0,18.666 15.186,33.852 33.852,33.852 18.666,0 33.852,-15.186 33.852,-33.852 0,-18.666 -15.185,-33.852 -33.852,-33.852 z"
   id="path5" />
<path
   d="m 365.277,192.982 c -18.666,0 -33.852,15.186 -33.852,33.852 0,18.666 15.186,33.852 33.852,33.852 18.666,0 33.852,-15.186 33.852,-33.852 0,-18.666 -15.186,-33.852 -33.852,-33.852 z"
   id="path6" />
<path
   d="m 256.004,285.924 c -30.99,0 -56.203,32.836 -56.203,73.196 0,13.36 2.767,26.424 7.998,37.772 10.193,22.182 28.215,35.425 48.206,35.425 19.991,0 38.012,-13.242 48.206,-35.423 5.224,-11.364 7.986,-24.426 7.986,-37.773 -0.002,-40.361 -25.21,-73.197 -56.193,-73.197 z m 0,128.094 c -8.765,0 -17.123,-4.455 -23.803,-12.352 1.274,0.188 2.537,0.423 3.781,0.73 6.546,1.615 13.279,2.422 20.014,2.422 6.737,0 13.478,-0.809 20.03,-2.424 1.244,-0.307 2.509,-0.542 3.785,-0.73 -6.681,7.898 -15.04,12.354 -23.807,12.354 z m 34.013,-30.935 c -6.183,-0.432 -12.414,0.076 -18.374,1.544 -10.237,2.524 -21.052,2.525 -31.282,0.002 -5.957,-1.47 -12.188,-1.98 -18.38,-1.547 -2.541,-7.443 -3.884,-15.601 -3.884,-23.961 0,-30.27 17.004,-54.897 37.904,-54.897 20.894,0 37.893,24.627 37.893,54.897 0.002,8.355 -1.339,16.512 -3.877,23.962 z"
   id="path7" />
<path
   d="m 365.275,120.204 c -22.616,0 -43.044,11.592 -54.645,31.007 -2.591,4.338 -1.176,9.956 3.162,12.547 4.341,2.592 9.957,1.176 12.547,-3.162 8.265,-13.834 22.82,-22.093 38.936,-22.094 16.117,0 30.673,8.26 38.938,22.094 1.713,2.868 4.749,4.458 7.863,4.458 1.597,0 3.215,-0.418 4.685,-1.297 4.338,-2.592 5.753,-8.209 3.162,-12.547 -11.602,-19.414 -32.03,-31.006 -54.648,-31.006 z"
   id="path8" />
<path
   d="m 201.369,151.211 c -11.6,-19.415 -32.028,-31.007 -54.645,-31.007 -10e-4,0 0.001,0 -10e-4,0 -22.615,0 -43.046,11.593 -54.646,31.007 -2.591,4.338 -1.176,9.956 3.162,12.547 1.47,0.878 3.086,1.297 4.685,1.297 3.113,0 6.15,-1.591 7.863,-4.458 8.265,-13.834 22.821,-22.094 38.938,-22.094 16.115,0 30.671,8.26 38.936,22.094 2.592,4.338 8.21,5.753 12.547,3.162 4.337,-2.592 5.752,-8.209 3.161,-12.548 z"
   id="path9" />
<g
   id="g10">
	<circle
   style="fill:#ffffff"
   cx="154.74899"
   cy="218.51601"
   r="9.1499996"
   id="circle9" />
	<circle
   style="fill:#ffffff"
   cx="373.11801"
   cy="218.51601"
   r="9.1499996"
   id="circle10" />
</g>
</svg>
