<?xml version="1.0" encoding="UTF-8" standalone="no"?>
<!-- Created with Inkscape (http://www.inkscape.org/) -->

<svg
   width="63.999996"
   height="63.999996"
   viewBox="0 0 16.933332 16.933332"
   version="1.1"
   id="svg1"
   inkscape:version="1.3.2 (091e20e, 2023-11-25, custom)"
   sodipodi:docname="yinyang_icon.svg"
   inkscape:export-filename="..\Desktop\Portfolio_3D\public\assets\yinyang_icon.svg"
   inkscape:export-xdpi="96"
   inkscape:export-ydpi="96"
   xmlns:inkscape="http://www.inkscape.org/namespaces/inkscape"
   xmlns:sodipodi="http://sodipodi.sourceforge.net/DTD/sodipodi-0.dtd"
   xmlns="http://www.w3.org/2000/svg"
   xmlns:svg="http://www.w3.org/2000/svg">
  <sodipodi:namedview
     id="namedview1"
     pagecolor="#ffffff"
     bordercolor="#666666"
     borderopacity="1.0"
     inkscape:showpageshadow="2"
     inkscape:pageopacity="0.0"
     inkscape:pagecheckerboard="0"
     inkscape:deskcolor="#d1d1d1"
     inkscape:document-units="mm"
     showgrid="true"
     inkscape:zoom="12.265961"
     inkscape:cx="28.575012"
     inkscape:cy="36.075443"
     inkscape:window-width="2560"
     inkscape:window-height="1494"
     inkscape:window-x="-11"
     inkscape:window-y="-11"
     inkscape:window-maximized="1"
     inkscape:current-layer="layer1">
    <inkscape:grid
       id="grid1"
       units="px"
       originx="0"
       originy="1.0809871e-14"
       spacingx="0.26458333"
       spacingy="0.26458333"
       empcolor="#0099e5"
       empopacity="0.30196078"
       color="#0099e5"
       opacity="0.14901961"
       empspacing="5"
       dotted="false"
       gridanglex="30"
       gridanglez="30"
       visible="true" />
  </sodipodi:namedview>
  <defs
     id="defs1" />
  <g
     inkscape:label="Calque 1"
     inkscape:groupmode="layer"
     id="layer1">
    <path
       style="fill:#000000;fill-rule:evenodd;stroke-width:1.6389;paint-order:stroke fill markers"
       id="path1"
       sodipodi:type="arc"
       sodipodi:cx="8.4666624"
       sodipodi:cy="-8.4666662"
       sodipodi:rx="8.4666662"
       sodipodi:ry="8.4666662"
       sodipodi:start="0"
       sodipodi:end="3.1402776"
       sodipodi:open="true"
       sodipodi:arc-type="arc"
       d="M 16.933329,-8.4666662 A 8.4666662,8.4666662 0 0 1 8.4722295,-1.8302455e-6 8.4666662,8.4666662 0 0 1 3.5062838e-6,-8.4555321"
       transform="rotate(90)" />
    <path
       style="fill:#ffffff;fill-rule:evenodd;stroke-width:1.6389;paint-order:stroke fill markers"
       id="path1-7"
       sodipodi:type="arc"
       sodipodi:cx="-8.46667"
       sodipodi:cy="8.4666662"
       sodipodi:rx="8.4666662"
       sodipodi:ry="8.4666662"
       sodipodi:start="0"
       sodipodi:end="3.1402776"
       sodipodi:open="true"
       sodipodi:arc-type="arc"
       d="M -3.8146973e-6,8.4666662 A 8.4666662,8.4666662 0 0 1 -8.461103,16.933331 8.4666662,8.4666662 0 0 1 -16.933329,8.4778003"
       transform="rotate(-90)" />
    <path
       d="M 8.4666667,0 A 4.2333331,4.2333331 0 0 0 4.2333333,4.2333333 4.2333331,4.2333331 0 0 0 8.4666667,8.4666667 4.2333331,4.2333331 0 0 0 12.7,4.2333333 4.2333331,4.2333331 0 0 0 8.4666667,0 Z"
       style="fill:#ffffff;fill-rule:evenodd;stroke-width:1.42281;paint-order:stroke fill markers"
       id="path4" />
    <path
       d="M 8.4666664,8.4666662 A 4.2333331,4.2333331 0 0 0 4.233333,12.7 4.2333331,4.2333331 0 0 0 8.4666664,16.933333 4.2333331,4.2333331 0 0 0 12.7,12.7 4.2333331,4.2333331 0 0 0 8.4666664,8.4666662 Z"
       style="fill:#000000;fill-rule:evenodd;stroke-width:1.42281;paint-order:stroke fill markers"
       id="path4-0" />
    <circle
       style="fill:#000000;fill-rule:evenodd;stroke-width:1.60356;paint-order:stroke fill markers"
       id="path5"
       cx="8.4666662"
       cy="4.2333336"
       r="1.5875" />
    <circle
       style="fill:#ffffff;fill-rule:evenodd;stroke-width:1.60356;paint-order:stroke fill markers"
       id="path5-1"
       cx="8.4666662"
       cy="12.7"
       r="1.5875" />
  </g>
</svg>
