<?xml version="1.0" encoding="UTF-8" standalone="no"?>
<svg
   id="Calque_1"
   data-name="Calque 1"
   viewBox="0 0 117.00001 96.68001"
   version="1.1"
   width="117"
   height="96.68"
   xmlns="http://www.w3.org/2000/svg"
   xmlns:svg="http://www.w3.org/2000/svg">
  <defs
     id="defs1">
    <style
       id="style1">
      .cls-1 {
        isolation: isolate;
      }

      .cls-2 {
        fill: #fff;
      }

      .cls-2, .cls-3 {
        stroke-width: 0px;
      }

      .cls-4 {
        opacity: .75;
      }

      .cls-3 {
        fill: #ee7d00;
      }
    </style>
  </defs>
  <g
     id="g10">
    <g
       id="g4">
      <path
         class="cls-2"
         d="M 75.82,7.08 C 75.79,7.02 75.75,6.97 75.71,6.91 75.58,6.7 75.44,6.5 75.31,6.29 75.18,6.1 75.06,5.91 74.93,5.73 74.8,5.55 74.65,5.38 74.51,5.21 74.35,5.01 74.19,4.82 74.02,4.63 73.9,4.5 73.77,4.38 73.64,4.25 73.43,4.04 73.22,3.83 73,3.63 72.9,3.54 72.78,3.45 72.68,3.36 72.42,3.14 72.16,2.93 71.89,2.73 71.79,2.66 71.68,2.59 71.58,2.52 71.29,2.32 71,2.13 70.7,1.95 70.66,1.93 70.63,1.9 70.6,1.88 70.51,1.83 70.41,1.79 70.31,1.74 70.03,1.59 69.76,1.44 69.47,1.31 69.29,1.23 69.11,1.15 68.92,1.08 68.69,0.98 68.45,0.89 68.21,0.81 67.98,0.73 67.75,0.66 67.53,0.59 67.33,0.53 67.12,0.47 66.92,0.42 66.67,0.36 66.41,0.3 66.16,0.26 65.96,0.22 65.77,0.19 65.57,0.16 65.32,0.12 65.06,0.09 64.81,0.07 64.6,0.05 64.39,0.03 64.18,0.02 63.94,0.02 63.71,0 63.48,0 63.25,0 63.01,0 62.78,0.02 62.57,0.02 62.36,0.05 62.15,0.07 61.9,0.09 61.64,0.12 61.39,0.16 61.19,0.19 61,0.22 60.8,0.26 60.55,0.31 60.29,0.36 60.04,0.42 59.83,0.47 59.63,0.53 59.43,0.59 59.2,0.66 58.97,0.73 58.75,0.81 58.51,0.89 58.28,0.99 58.04,1.08 57.86,1.16 57.67,1.23 57.49,1.31 57.2,1.44 56.93,1.59 56.65,1.74 56.56,1.79 56.46,1.83 56.37,1.88 56.33,1.9 56.3,1.93 56.27,1.95 55.97,2.13 55.68,2.32 55.39,2.52 55.29,2.59 55.18,2.66 55.08,2.73 54.81,2.93 54.55,3.14 54.29,3.36 54.18,3.45 54.07,3.54 53.97,3.63 53.75,3.83 53.54,4.04 53.33,4.25 53.2,4.38 53.07,4.5 52.95,4.63 52.78,4.81 52.62,5.01 52.46,5.21 52.32,5.38 52.17,5.55 52.04,5.73 51.91,5.91 51.78,6.1 51.66,6.29 51.52,6.49 51.38,6.7 51.26,6.91 51.23,6.97 51.19,7.02 51.15,7.08 L 0,95.16 H 33.12 L 69.2,33.59 c 1.06,-1.29 2.36,-2.42 3.9,-3.3 6.18,-3.54 13.9,-1.95 18.23,3.41 L 75.83,7.08 Z"
         id="path1" />
      <g
         class="cls-4"
         id="g2">
        <path
           class="cls-2"
           d="M 114.73,74.01 75.79,7.1 C 75.76,7.04 75.72,6.99 75.68,6.93 75.55,6.72 75.41,6.51 75.28,6.31 75.15,6.12 75.03,5.93 74.9,5.75 74.77,5.57 74.62,5.4 74.48,5.23 74.32,5.03 74.16,4.84 73.99,4.65 73.87,4.52 73.74,4.4 73.61,4.27 73.4,4.06 73.19,3.85 72.97,3.65 72.87,3.56 72.75,3.47 72.65,3.38 72.39,3.16 72.13,2.95 71.86,2.75 71.76,2.68 71.65,2.61 71.55,2.54 71.26,2.34 70.97,2.15 70.67,1.97 70.63,1.95 70.6,1.92 70.57,1.9 v 0 C 70.48,1.85 70.38,1.81 70.29,1.76 70.01,1.61 69.73,1.46 69.45,1.33 69.27,1.25 69.09,1.17 68.9,1.1 68.66,1 68.43,0.91 68.19,0.83 67.96,0.75 67.73,0.68 67.51,0.61 67.31,0.55 67.1,0.49 66.9,0.44 66.65,0.38 66.39,0.32 66.14,0.28 65.94,0.24 65.75,0.21 65.55,0.18 65.3,0.14 65.04,0.11 64.79,0.09 64.58,0.07 64.37,0.05 64.16,0.04 c -0.24,0 -0.47,-0.02 -0.71,-0.02 -0.24,0 -0.47,0 -0.71,0.02 -0.21,0 -0.42,0.03 -0.63,0.05 -0.25,0.02 -0.51,0.05 -0.76,0.09 -0.2,0.03 -0.39,0.06 -0.59,0.1 C 60.51,0.33 60.25,0.38 60,0.44 59.79,0.49 59.59,0.55 59.39,0.61 59.16,0.68 58.93,0.75 58.7,0.83 58.46,0.91 58.23,1.01 57.99,1.1 57.81,1.18 57.62,1.25 57.44,1.33 57.15,1.46 56.88,1.61 56.6,1.76 c -0.09,0.05 -0.19,0.09 -0.29,0.15 -0.04,0.02 -0.07,0.05 -0.1,0.07 -0.3,0.18 -0.59,0.37 -0.88,0.57 -0.1,0.07 -0.21,0.14 -0.31,0.21 -0.27,0.2 -0.53,0.41 -0.79,0.63 -0.11,0.09 -0.22,0.18 -0.32,0.27 -0.22,0.2 -0.43,0.41 -0.64,0.62 C 53.14,4.41 53.01,4.53 52.89,4.66 52.72,4.85 52.56,5.04 52.4,5.24 52.26,5.41 52.11,5.58 51.98,5.76 51.85,5.94 51.72,6.13 51.6,6.32 51.46,6.53 51.32,6.73 51.2,6.94 51.17,7 51.13,7.05 51.09,7.11 L 35.57,33.79 c 4.33,-5.37 12.07,-6.96 18.26,-3.42 1.54,0.88 2.84,2.02 3.91,3.31 l 32.3,54.5 c 3.94,6.77 12.67,9.09 19.49,5.18 v 0 c 6.83,-3.91 9.16,-12.57 5.22,-19.34 h -0.02 z"
           id="path2" />
      </g>
      <path
         class="cls-3"
         d="m 102.27,66.5 h -25.1 l 12.85,21.68 c 2.65,4.56 7.47,7.09 12.42,7.08 7.81,-0.09 14.12,-6.4 14.21,-14.21 0,-2.39 -0.62,-4.81 -1.91,-7.03 l -1.22,-2.1 c -2.63,-3.3 -6.69,-5.42 -11.25,-5.42 z"
         id="path3" />
      <path
         class="cls-2"
         d="M 89.93,88.17 77.08,66.49 h -5.93 c -7.94,0 -14.38,6.44 -14.38,14.38 v 0 c 0,7.94 6.44,14.38 14.38,14.38 h 30.77 C 97.12,95.12 92.51,92.6 89.93,88.18 v 0 z"
         id="path4" />
    </g>
    <g
       id="g9">
      <path
         class="cls-2"
         d="m 181.76,79.99 c -0.33,0.42 -0.67,0.84 -1.03,1.22 -4.1,4.28 -10.14,6.44 -17.95,6.44 H 144.07 V 36.77 h 18.72 c 7.83,-0.08 13.85,2.09 17.94,6.4 4.11,4.32 6.2,10.73 6.2,19.05 0,2.96 -0.28,5.66 -0.8,8.13 l 8.21,-18.17 c -1.27,-5.86 -3.75,-10.72 -7.41,-14.5 -5.6,-5.76 -13.69,-8.67 -24.05,-8.67 H 135.3 v 66.42 h 27.58 c 4.72,0 9.01,-0.64 12.78,-1.9 l 6.11,-13.54 z"
         id="path5" />
      <path
         class="cls-2"
         d="m 312.54,60.26 h -33.91 v 7.77 h 25.4 c -0.21,2.81 -0.84,5.4 -1.89,7.72 -1.17,2.57 -2.81,4.79 -4.88,6.6 -2.08,1.82 -4.63,3.25 -7.57,4.25 -2.96,1.01 -6.36,1.52 -10.12,1.52 -8.06,0 -14.27,-2.23 -18.46,-6.63 -4.2,-4.41 -6.34,-10.92 -6.34,-19.37 0,-8.45 2.13,-14.87 6.34,-19.28 4.19,-4.4 10.4,-6.63 18.48,-6.63 3.32,-0.06 6.5,0.42 9.46,1.43 1.24,0.41 2.53,0.96 3.84,1.61 1.27,0.64 2.49,1.47 3.62,2.49 1.14,1.02 2.21,2.25 3.17,3.66 0.95,1.39 1.73,3.07 2.32,5 l 0.2,0.66 h 8.3 l -0.24,-1.13 c -0.57,-2.72 -1.46,-5.16 -2.64,-7.23 -1.18,-2.06 -2.56,-3.89 -4.12,-5.41 -1.56,-1.52 -3.25,-2.81 -5.03,-3.83 -1.76,-1 -3.55,-1.83 -5.31,-2.46 -4.13,-1.5 -8.7,-2.33 -13.57,-2.45 h -0.02 c -5.25,0 -10.01,0.76 -14.15,2.27 -4.17,1.52 -7.74,3.74 -10.62,6.63 -2.88,2.88 -5.11,6.44 -6.63,10.58 -1.51,4.11 -2.27,8.86 -2.27,14.11 0,5.25 0.76,10.01 2.27,14.15 1.52,4.17 3.75,7.74 6.63,10.62 2.88,2.88 6.45,5.11 10.62,6.63 4.14,1.51 8.9,2.27 14.15,2.27 6.89,0 12.88,-1.31 17.82,-3.89 4.97,-2.59 8.87,-6.38 11.59,-11.26 1.07,-1.96 1.91,-3.96 2.48,-5.96 0.56,-1.97 0.96,-3.86 1.18,-5.63 0.22,-1.76 0.32,-3.35 0.28,-4.75 -0.03,-1.41 -0.11,-2.48 -0.24,-3.27 l -0.13,-0.78 h -0.01 z"
         id="path6" />
      <path
         class="cls-2"
         d="m 375.87,37.49 c -2.88,-2.91 -6.44,-5.16 -10.58,-6.68 -4.11,-1.51 -8.86,-2.27 -14.11,-2.27 -5.25,0 -10.01,0.76 -14.15,2.27 -4.17,1.52 -7.74,3.76 -10.63,6.68 -2.88,2.91 -5.11,6.48 -6.62,10.62 -1.51,4.11 -2.27,8.86 -2.27,14.11 0,5.25 0.76,10.01 2.27,14.15 1.52,4.17 3.75,7.74 6.63,10.62 2.88,2.88 6.45,5.11 10.62,6.63 4.14,1.51 8.9,2.27 14.15,2.27 5.25,0 10,-0.76 14.11,-2.27 4.14,-1.52 7.7,-3.75 10.58,-6.63 2.88,-2.88 5.11,-6.46 6.63,-10.62 1.51,-4.14 2.27,-8.9 2.27,-14.15 0,-5.25 -0.76,-10 -2.27,-14.11 -1.51,-4.13 -3.74,-7.71 -6.62,-10.62 z m 0.02,24.73 c 0,8.44 -2.13,14.94 -6.33,19.32 -4.19,4.37 -10.37,6.58 -18.37,6.58 -8,0 -14.27,-2.22 -18.46,-6.58 -4.2,-4.38 -6.33,-10.88 -6.33,-19.32 0,-8.44 2.13,-14.94 6.33,-19.32 4.19,-4.37 10.4,-6.58 18.46,-6.58 8.06,0 14.17,2.22 18.37,6.58 4.2,4.38 6.33,10.88 6.33,19.32 z"
         id="path7" />
      <path
         class="cls-2"
         d="m 219.73,29 h -6.81 L 181.8,95.42 h 9.35 l 7.1,-15.49 h 36.15 l 7.1,15.49 h 9.35 z m -17.86,43.16 14.41,-31.33 14.49,31.33 z"
         id="path8" />
      <polygon
         class="cls-2"
         points="390.97,28.07 390.97,94.49 399.76,94.49 399.76,46.32 424.54,94.49 429,94.49 453.77,46.32 453.77,81.53 462.56,62.78 462.56,28.07 453.58,28.07 426.77,80.53 399.95,28.07 "
         id="polygon8" />
      <path
         class="cls-2"
         d="m 493.64,29 h -6.81 l -31.12,66.42 h 9.35 l 7.1,-15.49 h 36.15 l 7.1,15.49 h 9.35 z m -17.86,43.16 14.41,-31.33 14.49,31.33 z"
         id="path9" />
    </g>
  </g>
</svg>
