<?xml version="1.0" encoding="UTF-8" standalone="no"?>
<svg
   width="33"
   height="48"
   viewBox="0 0 33 48"
   fill="none"
   version="1.1"
   id="svg8"
   xmlns="http://www.w3.org/2000/svg"
   xmlns:svg="http://www.w3.org/2000/svg">
  <g
     clip-path="url(#clip0_1_1367)"
     id="g4">
    <g
       clip-path="url(#clip1_1_1367)"
       filter="url(#filter0_i_1_1367)"
       id="g3">
      <g
         clip-path="url(#clip2_1_1367)"
         id="g2">
        <rect
           width="32"
           height="32"
           transform="translate(0.500031,8)"
           fill="url(#paint0_linear_1_1367)"
           id="rect1"
           x="0"
           y="0"
           style="fill:url(#paint0_linear_1_1367)" />
        <path
           d="M 16.5,25.625 H 10 C 9.10257,25.625 8.37503,24.8975 8.37503,24 8.37503,23.1025 9.10257,22.375 10,22.375 h 6.5 c 0.8975,0 1.625,0.7275 1.625,1.625 0,0.8975 -0.7275,1.625 -1.625,1.625 z"
           fill="#ffffff"
           fill-opacity="0.6"
           id="path1" />
        <path
           d="M 16.5,17.5 H 10 C 9.10257,17.5 8.37503,16.7725 8.37503,15.875 8.37503,14.9775 9.10257,14.25 10,14.25 h 6.5 c 5.3848,0 9.75,4.3652 9.75,9.75 0,5.3848 -4.3652,9.75 -9.75,9.75 H 10 C 9.10257,33.75 8.37503,33.0225 8.37503,32.125 8.37503,31.2275 9.10257,30.5 10,30.5 h 6.5 c 3.5899,0 6.5,-2.9101 6.5,-6.5 0,-3.5898 -2.9101,-6.5 -6.5,-6.5 z"
           fill="#ffffff"
           id="path2" />
      </g>
    </g>
    <path
       d="M 47.764,30 H 39.94 V 18.8 h 7.52 v 1.952 h -5.44 v 2.608 h 5.008 v 1.952 H 42.02 v 2.736 h 5.744 z M 56.8204,18.624 V 30 h -1.952 v -1.264 c -0.224,0.448 -0.5707,0.8 -1.04,1.056 -0.4587,0.256 -0.9814,0.384 -1.568,0.384 -1.0774,0 -1.9627,-0.3733 -2.656,-1.12 -0.6934,-0.7573 -1.04,-1.8187 -1.04,-3.184 0,-1.344 0.3466,-2.3893 1.04,-3.136 0.6933,-0.7467 1.5786,-1.12 2.656,-1.12 0.5546,0 1.0613,0.112 1.52,0.336 0.4586,0.2133 0.8106,0.512 1.056,0.896 v -4.224 z m -1.936,7.248 c 0,-0.7893 -0.2134,-1.4027 -0.64,-1.84 -0.416,-0.4373 -0.9227,-0.656 -1.52,-0.656 -0.6294,0 -1.1467,0.224 -1.552,0.672 -0.3947,0.4373 -0.592,1.0453 -0.592,1.824 0,0.768 0.1973,1.376 0.592,1.824 0.4053,0.4373 0.9226,0.656 1.552,0.656 0.5973,0 1.104,-0.2187 1.52,-0.656 0.4266,-0.448 0.64,-1.056 0.64,-1.824 z m 8.506,-4.208 V 23.6 h -0.528 c -1.4294,0 -2.144,0.7893 -2.144,2.368 V 30 h -1.984 v -8.24 h 1.968 v 1.216 c 0.3946,-0.8747 1.1093,-1.312 2.144,-1.312 z m 7.5155,2.624 V 30 h -1.936 v -1.2 c -0.5547,0.9173 -1.4187,1.376 -2.592,1.376 -0.7254,0 -1.3547,-0.2027 -1.888,-0.608 -0.512,-0.416 -0.768,-1.0293 -0.768,-1.84 0,-1.4293 0.8746,-2.272 2.624,-2.528 l 1.664,-0.24 c 0.64,-0.096 0.96,-0.384 0.96,-0.864 0,-0.2773 -0.128,-0.4853 -0.384,-0.624 -0.2454,-0.1493 -0.5707,-0.224 -0.976,-0.224 -0.5227,0 -0.9227,0.1013 -1.2,0.304 -0.2667,0.2027 -0.4534,0.5067 -0.56,0.912 h -1.888 c 0.16,-0.928 0.5706,-1.632 1.232,-2.112 0.672,-0.4907 1.536,-0.736 2.592,-0.736 0.992,0 1.76,0.224 2.304,0.672 0.544,0.4373 0.816,1.104 0.816,2 z m -1.984,2.256 v -0.448 c -0.192,0.0747 -0.544,0.1547 -1.056,0.24 l -0.832,0.128 c -0.8854,0.1173 -1.328,0.4853 -1.328,1.104 0,0.64 0.3946,0.96 1.184,0.96 0.608,0 1.0933,-0.192 1.456,-0.576 0.384,-0.384 0.576,-0.8533 0.576,-1.408 z M 84.8952,21.76 82.0312,30 h -1.904 L 78.3352,24.656 76.5592,30 h -1.92 l -2.848,-8.24 h 2.112 l 1.744,5.584 1.76,-5.584 h 1.936 l 1.776,5.584 1.728,-5.584 z M 97.5092,18.8 V 30 H 95.5573 V 22.112 L 92.6772,30 h -1.872 l -2.88,-7.888 V 30 h -1.904 V 18.8 h 2.64 l 3.104,8.56 3.104,-8.56 z m 8.7108,5.488 V 30 h -1.936 v -1.2 c -0.554,0.9173 -1.418,1.376 -2.592,1.376 -0.725,0 -1.354,-0.2027 -1.8878,-0.608 -0.512,-0.416 -0.768,-1.0293 -0.768,-1.84 0,-1.4293 0.8747,-2.272 2.6238,-2.528 l 1.664,-0.24 c 0.64,-0.096 0.96,-0.384 0.96,-0.864 0,-0.2773 -0.128,-0.4853 -0.384,-0.624 -0.245,-0.1493 -0.57,-0.224 -0.976,-0.224 -0.522,0 -0.922,0.1013 -1.2,0.304 -0.266,0.2027 -0.453,0.5067 -0.56,0.912 h -1.8878 c 0.16,-0.928 0.5707,-1.632 1.2318,-2.112 0.672,-0.4907 1.536,-0.736 2.592,-0.736 0.992,0 1.76,0.224 2.304,0.672 0.544,0.4373 0.816,1.104 0.816,2 z m -1.984,2.256 v -0.448 c -0.192,0.0747 -0.544,0.1547 -1.056,0.24 l -0.832,0.128 c -0.885,0.1173 -1.328,0.4853 -1.328,1.104 0,0.64 0.395,0.96 1.184,0.96 0.608,0 1.094,-0.192 1.456,-0.576 0.384,-0.384 0.576,-0.8533 0.576,-1.408 z M 113.506,30 111.618,27.376 109.73,30 h -2.496 l 3.072,-4.08 -3.12,-4.16 h 2.56 l 1.856,2.576 1.824,-2.576 h 2.464 l -2.992,4.016 3.168,4.224 z"
       fill="#000000"
       id="path3" />
  </g>
  <defs
     id="defs8">
    <filter
       id="filter0_i_1_1367"
       x="0.5"
       y="8"
       width="32"
       height="32"
       filterUnits="userSpaceOnUse"
       color-interpolation-filters="sRGB">
      <feFlood
         flood-opacity="0"
         result="BackgroundImageFix"
         id="feFlood4" />
      <feBlend
         mode="normal"
         in="SourceGraphic"
         in2="BackgroundImageFix"
         result="shape"
         id="feBlend4" />
      <feColorMatrix
         in="SourceAlpha"
         type="matrix"
         values="0 0 0 0 0 0 0 0 0 0 0 0 0 0 0 0 0 0 127 0"
         result="hardAlpha"
         id="feColorMatrix4" />
      <feOffset
         id="feOffset4" />
      <feGaussianBlur
         stdDeviation="0.5"
         id="feGaussianBlur4" />
      <feComposite
         in2="hardAlpha"
         operator="arithmetic"
         k2="-1"
         k3="1"
         id="feComposite4"
         k1="0"
         k4="0" />
      <feColorMatrix
         type="matrix"
         values="0 0 0 0 0 0 0 0 0 0 0 0 0 0 0 0 0 0 0.24 0"
         id="feColorMatrix5" />
      <feBlend
         mode="darken"
         in2="shape"
         result="effect1_innerShadow_1_1367"
         id="feBlend5" />
    </filter>
    <linearGradient
       id="paint0_linear_1_1367"
       x1="33.454601"
       y1="37.333302"
       x2="2.33165"
       y2="-7.9363399"
       gradientUnits="userSpaceOnUse">
      <stop
         stop-color="#0066FF"
         id="stop5" />
      <stop
         offset="1"
         stop-color="#66CCFF"
         id="stop6" />
    </linearGradient>
    <clipPath
       id="clip0_1_1367">
      <rect
         width="116"
         height="48"
         fill="#ffffff"
         transform="translate(0.5)"
         id="rect6"
         x="0"
         y="0" />
    </clipPath>
    <clipPath
       id="clip1_1_1367">
      <rect
         width="32"
         height="32"
         fill="#ffffff"
         transform="translate(0.5,8)"
         id="rect7"
         x="0"
         y="0" />
    </clipPath>
    <clipPath
       id="clip2_1_1367">
      <rect
         x="0.5"
         y="8"
         width="32"
         height="32"
         rx="7.3009701"
         fill="#ffffff"
         id="rect8" />
    </clipPath>
  </defs>
</svg>
