<?xml version="1.0" encoding="UTF-8" standalone="no"?>
<svg
   height="514"
   viewBox="-0.365 -0.119 32.056966 31.132"
   width="533"
   version="1.1"
   id="svg1"
   xmlns="http://www.w3.org/2000/svg"
   xmlns:svg="http://www.w3.org/2000/svg">
  <defs
     id="defs1" />
  <path
     d="m 106.686,15.4 a 0.49,0.49 0 0 0 -0.166,-0.38 0.537,0.537 0 0 0 -0.357,-0.11 h -0.62 l -4.78,10.833 -1.246,-5.803 c -0.072,-0.51 -0.482,-0.858 -0.965,-0.83 h -0.804 l -3.774,6.57 0.037,-10.25 a 0.505,0.505 0 0 0 -0.171,-0.4 0.57,0.57 0 0 0 -0.381,-0.12 h -0.806 v 12.314 h 1.027 v -0.002 l 0.022,0.002 c 0.302,0.003 0.575,-0.073 0.798,-0.235 0.203,-0.145 0.378,-0.347 0.532,-0.591 l 3.304,-5.895 1.376,6.72 h 0.882 c 0.562,0 1.032,-0.327 1.278,-0.885 l 4.75,-10.682 c 0.034,-0.088 0.062,-0.145 0.064,-0.257 m 43.305,-0.49 h -5.082 c -2.373,0.006 -2.625,1.956 -2.636,2.875 0,0.967 0.703,1.737 1.053,2.05 l 3.46,3.389 c 0.411,0.403 0.61,0.88 0.61,1.322 0,0.75 -0.573,1.364 -1.5,1.36 -10e-4,0.006 -4.478,0.007 -4.52,0.019 -0.146,0.027 -0.3,0.22 -0.297,0.373 h -0.013 l 0.013,0.006 v 0.924 h 5.03 c 2.375,-0.009 2.624,-1.954 2.637,-2.873 l -0.001,-0.008 c 0.001,-1.272 -1.17,-2.256 -1.178,-2.26 l -3.281,-3.229 c -0.41,-0.404 -0.662,-0.818 -0.664,-1.265 0.002,-0.753 0.575,-1.363 1.497,-1.363 0.006,-0.002 4.535,-0.006 4.572,-0.017 l 0.012,0.033 -0.01,-0.033 c 0.147,-0.028 0.303,-0.221 0.3,-0.374 0,0 -0.002,-0.002 0,-0.004 l -0.002,-0.924 m -36.268,1.235 c -2.259,-0.125 -4.84,1.205 -5.728,4.795 -0.874,3.52 0.76,5.23 2.973,5.514 l 0.23,0.01 c 2.285,0.122 4.716,-1.21 5.571,-4.8 0.836,-3.521 -0.801,-5.29 -3.046,-5.519 m 4.367,5.625 c -0.831,3.5 -3.354,6.263 -7.38,5.952 V 27.72 c -3.747,-0.433 -4.82,-3.73 -4.03,-6.888 0.873,-3.497 3.386,-6.259 7.355,-5.952 v 0.004 c 3.696,0.431 4.803,3.731 4.055,6.886 m 22.424,-6.743 a 0.55,0.55 0 0 0 -0.339,-0.095 h -0.6 l -6.338,5.42 0.843,-4.79 a 0.507,0.507 0 0 0 -0.185,-0.522 0.642,0.642 0 0 0 -0.386,-0.13 h -0.61 l -2.289,12.314 h 1.355 l 1.002,-5.45 5.019,5.453 h 0.6 a 0.553,0.553 0 0 0 0.337,-0.098 0.412,0.412 0 0 0 0.157,-0.335 c 0,-0.221 -0.18,-0.444 -0.18,-0.444 l -4.75,-5.16 6.34,-5.384 c 0,0 0.178,-0.152 0.178,-0.444 a 0.42,0.42 0 0 0 -0.154,-0.335 m -12.725,1.752 c -0.248,-0.24 -0.625,-0.355 -1.21,-0.465 a 6.151,6.151 0 0 0 -0.688,-0.065 c -0.705,-0.039 -2.799,-0.007 -3.44,-0.002 l -0.812,4.48 c 0.482,0.007 1.034,0.014 1.423,0.016 1.096,0 2.156,-0.035 2.906,-0.24 1.929,-0.522 2.885,-2.71 1.82,-3.724 m 1.245,-0.744 c 0.549,0.623 0.59,1.78 0.434,2.493 -0.19,0.87 -1.018,3.067 -4.12,3.344 l 2.613,4.478 c 0,0 0.178,0.267 0.178,0.444 0.002,0.117 -0.05,0.262 -0.156,0.335 a 0.531,0.531 0 0 1 -0.335,0.098 h -0.69 l -3.065,-5.282 -2.469,-0.011 -0.958,5.293 h -1.356 l 2.292,-12.317 h 3.164 c 1.87,0 3.51,0.028 4.468,1.125 M 37.966,17.54 c -0.154,0.992 0.151,2.156 1.256,2.928 l 3.936,2.747 c 0.413,0.285 0.617,0.482 0.567,0.815 -0.074,0.46 -0.314,0.645 -1.13,0.645 h -4.578 c -0.49,0 -0.756,0.24 -0.845,0.793 v 1.706 h 5.363 c 2.35,0 3.513,-1.386 3.748,-2.86 0.22,-1.385 -0.246,-2.375 -1.14,-3.013 l -4.184,-2.969 c -0.336,-0.241 -0.42,-0.366 -0.396,-0.548 0.037,-0.302 0.313,-0.426 0.789,-0.426 h 4.78 c 0.584,0 0.917,-0.597 1.01,-1.189 v -1.311 h -6.32 c -1.403,0 -2.629,1.254 -2.856,2.682 m 47.649,-2.684 h -6.63 l -0.033,0.199 c -0.155,0.835 -0.086,1.804 1.237,1.804 h 4.91 c 1.944,0 2.688,1.407 2.206,4.046 -0.442,2.418 -1.744,4.265 -3.723,4.265 H 80.92 l 1.263,-6.927 h -2.264 c -0.305,0 -0.515,0.222 -0.55,0.419 l -1.554,8.51 h 5.192 c 3.833,0 6.506,-1.805 7.334,-6.356 0.64,-3.497 -0.816,-5.96 -4.726,-5.96 M 69.876,25.172 h -5.232 l 1.808,-9.896 a 0.36,0.36 0 0 0 -0.36,-0.418 H 63.79 l -2.249,12.314 h 8.668 l 0.225,-1.23 c 0.1,-0.552 -0.085,-0.77 -0.558,-0.77 m 6.522,-10.316 h -2.303 l -2.249,12.316 h 2.738 l 2.173,-11.898 a 0.358,0.358 0 0 0 -0.36,-0.418 m -21.295,2.111 c -2.499,0 -3.808,1.453 -4.277,4.31 -0.469,2.863 0.363,4.312 2.861,4.312 2.498,0 3.806,-1.45 4.275,-4.312 0.47,-2.857 -0.361,-4.31 -2.86,-4.31 m 5.579,4.31 c -0.575,3.497 -2.94,6.425 -7.34,6.425 -4.403,0 -5.807,-2.928 -5.232,-6.425 0.573,-3.495 2.94,-6.42 7.341,-6.42 4.4,0 5.806,2.925 5.231,6.42 M 28.686,10.567 c -2.617,-0.43 -7.295,-0.596 -8.895,1.856 -1.235,1.894 1.1,4.488 3.226,7.001 1.704,2.013 3.558,3.936 2.801,5.06 -0.618,0.919 -4.581,0.917 -5.947,0.99 -1.657,0.087 -4.045,0.092 -4.462,0.32 -0.374,0.2 -0.582,0.825 0.82,1.076 1.127,0.203 3.812,0.614 6.643,0.612 2.955,0 6.06,-0.485 6.733,-2.773 0.541,-1.838 -1.335,-3.808 -2.985,-5.805 -1.805,-2.188 -3.635,-3.747 -3.48,-5.296 0.117,-1.206 2.48,-1.274 6.402,-1.343 0.815,-0.015 2.439,-0.054 2.126,-0.698 -0.279,-0.569 -1.494,-0.757 -2.982,-1 m -12.062,5.455 c -1.678,-1.151 -4.67,-1.536 -7.132,-1.408 -2.193,0.115 -5.964,0.813 -5.822,1.507 0.134,0.75 2.52,0.517 3.614,0.517 2.405,0 6.222,0.147 6.823,1.696 1.296,3.34 -7.495,9.334 -9.37,8.758 -0.848,-0.259 1.723,-4.617 2.655,-6.183 0.554,-0.936 1.399,-2.405 0.679,-2.506 -0.806,-0.111 -1.693,1.272 -2.27,2.07 -1.564,2.167 -3.165,4.534 -4.45,6.965 -0.399,0.751 -1.716,3.011 -1.264,3.303 0.423,0.272 2.433,-0.115 4.99,-1.129 8.04,-3.182 11.66,-7.33 12.63,-10.757 0.34,-1.207 -0.248,-2.26 -1.083,-2.833 M 10.654,1.385 c -0.164,-0.541 2.517,-1.244 5.458,-1.374 2.963,-0.13 6.468,0.459 7.122,2.414 1.07,3.203 -4.356,7.874 -9.083,10.17 -1.16,0.56 -1.861,0.715 -2.155,0.676 -0.278,-0.037 -0.322,-0.297 -0.231,-0.476 0.167,-0.337 0.932,-1.023 1.951,-1.769 5.322,-3.888 7.052,-6.74 6.047,-7.894 -0.645,-0.74 -3.342,-1.256 -6.144,-1.256 -0.76,0 -2.758,0.166 -2.965,-0.49"
     fill="#ee2722"
     id="path1" />
</svg>
