<?xml version="1.0" encoding="UTF-8" standalone="no"?>
<svg
   width="78"
   height="78"
   viewBox="0 0 78 78"
   fill="none"
   version="1.1"
   id="svg33"
   xmlns="http://www.w3.org/2000/svg"
   xmlns:svg="http://www.w3.org/2000/svg">
  <g
     clip-path="url(#clip0_11022_23722)"
     id="g10"
     transform="translate(-53,-73.0001)">
    <path
       d="M 112.468,75.0001 H 71.4274 c -9.0737,0 -16.4294,7.3557 -16.4294,16.4293 V 132.47 c 0,9.074 7.3557,16.43 16.4294,16.43 h 41.0406 c 9.074,0 16.43,-7.356 16.43,-16.43 V 91.4294 c 0,-9.0736 -7.356,-16.4293 -16.43,-16.4293 z"
       fill="url(#paint0_linear_11022_23722)"
       id="path1"
       style="fill:url(#paint0_linear_11022_23722)" />
    <path
       d="m 73.7791,103.54 c 13.5283,1.656 23.1805,13.897 21.6062,27.383 0,0.043 0,0.097 -0.0109,0.14 0,0.044 0,0.076 -0.0217,0.119 -0.2823,2.23 -0.8577,4.351 -1.672,6.332 -5.3853,-0.66 -10.1517,-2.987 -13.8432,-6.418 0.2715,-0.66 0.5103,-1.342 0.7166,-2.035 0.4126,-1.342 0.7057,-2.749 0.8903,-4.188 0.2172,-1.754 0.2389,-3.485 0.0869,-5.174 -0.5429,-6.191 -3.4201,-11.84 -7.8282,-15.931 0.0217,-0.076 0.0543,-0.141 0.0869,-0.217 z"
       fill="url(#paint1_linear_11022_23722)"
       id="path2"
       style="fill:url(#paint1_linear_11022_23722)" />
    <path
       d="M 110.347,120.359 C 96.8183,118.703 87.1662,106.463 88.7405,92.9772 c 0,-0.0433 0,-0.0974 0.0108,-0.1407 0,-0.0433 0,-0.0758 0.0217,-0.1191 0.2823,-2.2295 0.8578,-4.3508 1.6721,-6.3314 5.3852,0.6602 10.1519,2.9871 13.8429,6.418 -0.271,0.6602 -0.51,1.3421 -0.716,2.0348 -0.413,1.342 -0.706,2.749 -0.891,4.1885 -0.217,1.7537 -0.239,3.4847 -0.087,5.1737 0.543,6.19 3.421,11.84 7.829,15.931 -0.022,0.076 -0.055,0.141 -0.087,0.217 z"
       fill="url(#paint2_linear_11022_23722)"
       id="path3"
       style="fill:url(#paint2_linear_11022_23722)" />
    <path
       d="M 110.347,120.359 C 96.8183,118.703 87.1662,106.463 88.7405,92.9772 c 3.0075,5.2275 7.8933,9.3078 13.8535,11.2338 1.488,0.487 3.051,0.834 4.658,1.029 1.466,0.173 2.921,0.227 4.343,0.151 0.967,-0.054 1.911,-0.162 2.856,-0.314 2.475,4.416 3.615,9.622 2.964,15.033 0,0.044 0,0.076 -0.022,0.12 -2.161,0.357 -4.397,0.422 -6.677,0.183 -0.152,-0.021 -0.272,-0.032 -0.369,-0.043 z"
       fill="#ffffff"
       id="path4" />
    <path
       d="m 73.7789,103.54 c 13.5283,1.656 23.1805,13.897 21.6062,27.383 -3.0075,-5.228 -7.8933,-9.308 -13.854,-11.235 -1.4875,-0.487 -3.0509,-0.833 -4.6578,-1.028 -1.4658,-0.173 -2.9207,-0.227 -4.343,-0.151 -0.9663,0.054 -1.9109,0.162 -2.8555,0.314 -2.4754,-4.416 -3.6155,-9.622 -2.964,-15.034 0,-0.043 0,-0.075 0.0217,-0.119 2.1606,-0.357 4.3972,-0.422 6.6773,-0.184 0.1303,0.011 0.2388,0.022 0.3691,0.044 z"
       fill="#ffffff"
       id="path5" />
    <path
       d="m 186.523,95.25 -10.379,16.289 10.444,18.431 h -11.65 l -7.1,-12.154 -7.568,12.154 H 148.62 L 159.608,111.539 148.892,95.25 h 11.519 l 7.503,11.613 6.829,-11.613 h 11.791 z"
       fill="#ffffff"
       id="path6" />
    <path
       d="m 200.181,95.25 1.813,3.3335 c 1.607,-2.7382 4.821,-4.6755 9.577,-4.6755 5.222,0 9.044,2.0672 11.183,5.9418 1.737,-3.2036 5.493,-5.9418 11.052,-5.9418 11.922,0 13.333,10.282 13.333,15.964 v 20.098 h -10.586 v -19.968 c 0,-3.94 -2.345,-6.472 -5.96,-6.472 -3.084,0 -5.69,3.268 -5.69,7.013 v 19.427 h -10.586 v -19.968 c 0,-3.94 -2.28,-6.472 -5.765,-6.472 -3.214,0 -6.026,3.268 -6.026,7.013 V 129.97 H 191.94 V 95.25 Z"
       fill="#ffffff"
       id="path7" />
    <path
       d="m 257.92,77.825 c 3.616,0 6.634,3.0737 6.634,6.6777 0,3.6041 -3.018,6.6778 -6.634,6.6778 -3.615,0 -6.764,-3.0088 -6.764,-6.6778 0,-3.669 3.019,-6.6777 6.764,-6.6777 z m 5.223,17.425 v 34.72 H 252.557 V 95.25 Z"
       fill="#ffffff"
       id="path8" />
    <path
       d="m 277.475,95.2499 1.813,3.3335 c 1.607,-2.7382 4.821,-4.6756 9.576,-4.6756 8.578,0 13.333,5.5414 13.333,15.6282 v 20.434 h -10.586 v -19.968 c 0,-4.146 -2.073,-6.473 -5.765,-6.473 -3.214,0 -6.026,3.269 -6.026,7.014 V 129.97 H 269.234 V 95.2499 Z"
       fill="#ffffff"
       id="path9" />
    <path
       d="m 306.215,112.34 c 0,-10.217 7.969,-18.432 17.882,-18.432 3.822,0 7.372,1.2663 10.314,3.4092 V 81.3641 l 10.586,3.6041 V 129.97 h -7.969 l -1.878,-3.268 c -3.019,2.532 -6.895,4.004 -11.053,4.004 -9.913,0 -17.882,-8.214 -17.882,-18.356 z m 19.489,8.81 c 5.027,0 9.044,-3.94 9.044,-9.016 0,-5.076 -4.017,-8.951 -9.044,-8.951 -5.027,0 -8.979,4.005 -8.979,8.951 0,4.946 3.952,9.016 8.979,9.016 z"
       fill="#ffffff"
       id="path10" />
  </g>
  <defs
     id="defs33">
    <linearGradient
       id="paint0_linear_11022_23722"
       x1="130.056"
       y1="71.764"
       x2="64.176102"
       y2="141.226"
       gradientUnits="userSpaceOnUse">
      <stop
         offset="0.01"
         stop-color="#E9913E"
         id="stop10" />
      <stop
         offset="1"
         stop-color="#F20000"
         id="stop11" />
    </linearGradient>
    <linearGradient
       id="paint1_linear_11022_23722"
       x1="73.638"
       y1="139.397"
       x2="89.498001"
       y2="109.538"
       gradientUnits="userSpaceOnUse">
      <stop
         offset="0.19"
         stop-color="white"
         id="stop12" />
      <stop
         offset="0.4"
         stop-color="#FDFCFC"
         stop-opacity="0.99"
         id="stop13" />
      <stop
         offset="0.51"
         stop-color="#F9F4F5"
         stop-opacity="0.97"
         id="stop14" />
      <stop
         offset="0.6"
         stop-color="#F3E7E9"
         stop-opacity="0.93"
         id="stop15" />
      <stop
         offset="0.67"
         stop-color="#E9D4D7"
         stop-opacity="0.88"
         id="stop16" />
      <stop
         offset="0.74"
         stop-color="#DDBBC0"
         stop-opacity="0.81"
         id="stop17" />
      <stop
         offset="0.81"
         stop-color="#CE9CA4"
         stop-opacity="0.73"
         id="stop18" />
      <stop
         offset="0.87"
         stop-color="#BC7883"
         stop-opacity="0.63"
         id="stop19" />
      <stop
         offset="0.92"
         stop-color="#A84E5C"
         stop-opacity="0.51"
         id="stop20" />
      <stop
         offset="0.97"
         stop-color="#911F31"
         stop-opacity="0.38"
         id="stop21" />
      <stop
         offset="1"
         stop-color="#830317"
         stop-opacity="0.3"
         id="stop22" />
    </linearGradient>
    <linearGradient
       id="paint2_linear_11022_23722"
       x1="115.862"
       y1="62.759399"
       x2="91.967598"
       y2="125.897"
       gradientUnits="userSpaceOnUse">
      <stop
         offset="0.19"
         stop-color="white"
         id="stop23" />
      <stop
         offset="0.4"
         stop-color="#FDFCFC"
         stop-opacity="0.99"
         id="stop24" />
      <stop
         offset="0.51"
         stop-color="#F9F4F5"
         stop-opacity="0.97"
         id="stop25" />
      <stop
         offset="0.6"
         stop-color="#F3E7E9"
         stop-opacity="0.93"
         id="stop26" />
      <stop
         offset="0.67"
         stop-color="#E9D4D7"
         stop-opacity="0.88"
         id="stop27" />
      <stop
         offset="0.74"
         stop-color="#DDBBC0"
         stop-opacity="0.81"
         id="stop28" />
      <stop
         offset="0.81"
         stop-color="#CE9CA4"
         stop-opacity="0.73"
         id="stop29" />
      <stop
         offset="0.87"
         stop-color="#BC7883"
         stop-opacity="0.63"
         id="stop30" />
      <stop
         offset="0.92"
         stop-color="#A84E5C"
         stop-opacity="0.51"
         id="stop31" />
      <stop
         offset="0.97"
         stop-color="#911F31"
         stop-opacity="0.38"
         id="stop32" />
      <stop
         offset="1"
         stop-color="#830317"
         stop-opacity="0.3"
         id="stop33" />
    </linearGradient>
    <clipPath
       id="clip0_11022_23722">
      <rect
         width="290"
         height="73.899498"
         fill="#ffffff"
         transform="translate(55,75)"
         id="rect33"
         x="0"
         y="0" />
    </clipPath>
  </defs>
</svg>
