<?xml version="1.0" encoding="UTF-8" standalone="no"?>
<svg
   id="Layer_1"
   data-name="Layer 1"
   viewBox="0 0 106 93.09"
   version="1.1"
   width="106"
   height="93.089996"
   xmlns="http://www.w3.org/2000/svg"
   xmlns:svg="http://www.w3.org/2000/svg"
   xmlns:rdf="http://www.w3.org/1999/02/22-rdf-syntax-ns#"
   xmlns:cc="http://creativecommons.org/ns#"
   xmlns:dc="http://purl.org/dc/elements/1.1/">
  <defs
     id="defs1">
    <style
       id="style1">.cls-1{fill:#171717;}.cls-2{fill:#13aff0;}</style>
    <filter
       style="color-interpolation-filters:sRGB"
       id="filter24"
       x="0"
       y="0"
       width="1"
       height="1">
      <feColorMatrix
         values="0 0 0 0 1 0 0 0 0 1 0 0 0 0 1 0 0 0 1 0"
         id="feColorMatrix24" />
    </filter>
    <filter
       style="color-interpolation-filters:sRGB"
       id="filter25"
       x="0"
       y="0"
       width="1"
       height="1">
      <feColorMatrix
         values="0 0 0 0 1 0 0 0 0 1 0 0 0 0 1 0 0 0 1 0"
         id="feColorMatrix25" />
    </filter>
    <filter
       style="color-interpolation-filters:sRGB"
       id="filter26"
       x="0"
       y="0"
       width="1"
       height="1">
      <feColorMatrix
         values="0 0 0 0 1 0 0 0 0 1 0 0 0 0 1 0 0 0 1 0"
         id="feColorMatrix26" />
    </filter>
  </defs>
  <title
     id="title1">ArtStation-logo-horizontal-white</title>
  <path
     class="cls-2"
     d="m 0,71.77 8.93,15.45 v 0 a 10.66,10.66 0 0 0 9.53,5.87 H 77.78 L 65.48,71.77 Z"
     id="path11"
     style="filter:url(#filter26)" />
  <path
     class="cls-2"
     d="m 105.77,71.88 a 10.63,10.63 0 0 0 -1.7,-5.79 L 69.32,5.68 A 10.69,10.69 0 0 0 59.88,0 H 41.51 l 53.68,93 8.46,-14.65 c 1.67,-2.84 2.12,-4.05 2.12,-6.47 z"
     id="path12"
     style="filter:url(#filter25)" />
  <polygon
     class="cls-2"
     points="8.75,56.62 56.73,56.62 32.74,15.07 "
     id="polygon12"
     style="filter:url(#filter24)" />
  <metadata
     id="metadata12">
    <rdf:RDF>
      <cc:Work
         rdf:about="">
        <dc:title>ArtStation-logo-horizontal-white</dc:title>
      </cc:Work>
    </rdf:RDF>
  </metadata>
</svg>
